PathFileType  4	(X/Y/Z) C:\Users\antoi\Documents\MyRepositories\mobilecap\ResultsAnalysis
DataRate	CameraRate	NumFrames	NumMarkers	Units	OrigDataRate	OrigDataStartFrame	OrigNumFrames
100.0	100.0	4	55	mm	100.0	196	781
Frame#	Time	r_knee			r_shank_antsup			r_ankle			r_calc			r_5meta			r_toe			L_knee			L_shank_antsup			L_ankle			L_calc			L_5meta			L_toe			r_mknee			r_mankle			L_mknee			L_mankle			r_sh2			r_sh3			r_sh4			L_sh2			L_sh3			r_thigh1			r_thigh2			r_thigh3			r_thigh4			r_thigh5			L_thigh1			L_thigh2			L_thigh3			L_thigh4			r.ASIS			r.PSIS			L.ASIS			L.PSIS			C7			R_Shoulder			L_Shoulder			R_Sternum			L_Sternum			R_humerus			R_elbow_med			R_elbow_lat			R_forearm			R_wrist_radius			R_wrist_ulna			L_humerus			L_elbow_med			L_elbow_lat			L_forearm			L_wrist_radius			L_wrist_ulna			R_HJC			L_HJC			R_HJC_reg			L_HJC_reg			
		X1	Y1	Z1	X2	Y2	Z2	X3	Y3	Z3	X4	Y4	Z4	X5	Y5	Z5	X6	Y6	Z6	X7	Y7	Z7	X8	Y8	Z8	X9	Y9	Z9	X10	Y10	Z10	X11	Y11	Z11	X12	Y12	Z12	X13	Y13	Z13	X14	Y14	Z14	X15	Y15	Z15	X16	Y16	Z16	X17	Y17	Z17	X18	Y18	Z18	X19	Y19	Z19	X20	Y20	Z20	X21	Y21	Z21	X22	Y22	Z22	X23	Y23	Z23	X24	Y24	Z24	X25	Y25	Z25	X26	Y26	Z26	X27	Y27	Z27	X28	Y28	Z28	X29	Y29	Z29	X30	Y30	Z30	X31	Y31	Z31	X32	Y32	Z32	X33	Y33	Z33	X34	Y34	Z34	X35	Y35	Z35	X36	Y36	Z36	X37	Y37	Z37	X38	Y38	Z38	X39	Y39	Z39	X40	Y40	Z40	X41	Y41	Z41	X42	Y42	Z42	X43	Y43	Z43	X44	Y44	Z44	X45	Y45	Z45	X46	Y46	Z46	X47	Y47	Z47	X48	Y48	Z48	X49	Y49	Z49	X50	Y50	Z50	X51	Y51	Z51	X52	Y52	Z52	X53	Y53	Z53	X54	Y54	Z54	X55	Y55	Z55	

196	1.95000000	-206.88650	553.13068	-451.58225	-184.37759	429.08500	-457.60622	-293.89969	101.14735	-448.21560	-360.56491	66.67729	-490.66749	-159.49773	36.72404	-403.88215	-123.72786	58.58351	-478.26459	-246.55968	543.63860	-805.08830	-214.45800	440.85210	-793.15744	-300.52140	97.80769	-799.24184	-361.63647	66.60483	-751.44869	-156.20236	35.54086	-829.08042	-125.35472	58.47630	-757.74673	-213.46229	534.37355	-580.92936	-266.75038	111.69147	-543.00547	-234.66114	534.22144	-674.52100	-274.98907	113.30320	-705.97723	-192.40752	313.98665	-475.05956	-244.74051	424.79803	-408.77618	-244.01717	307.36993	-407.44721	-294.11045	443.62812	-833.80044	-276.28981	324.54293	-850.27800	-89.51868	781.70988	-475.84018	-102.35264	669.88049	-487.66463	-135.84842	646.03646	-432.93058	-173.25661	781.16809	-401.50226	-184.99054	663.87653	-421.33649	-132.33257	793.40791	-818.14580	-143.63409	655.15897	-808.52643	-241.79913	796.68421	-850.66913	-252.52205	658.57168	-832.08990	-108.94297	1054.37685	-485.95943	-313.78785	1088.45286	-574.36895	-106.22522	1045.80468	-753.77396	-315.51239	1085.98696	-672.56860	-301.78121	1575.64562	-637.59213	-219.83709	1517.89986	-443.99504	-207.37764	1533.61743	-811.31818	-154.12602	1522.85063	-609.33721	-153.50269	1517.39818	-653.04284	-192.19194	1348.04455	-374.33404	-257.64663	1124.04466	-407.37870	-231.62152	1147.85342	-333.53057	-118.01889	1015.00108	-326.19463	-71.92422	905.38125	-315.88527	-103.03014	885.00152	-297.11243	-185.23882	1356.75836	-890.44222	-266.82346	1146.94267	-858.29230	-224.37228	1160.45524	-924.50267	-120.41270	1031.94857	-893.77978	-79.34179	922.08008	-911.80668	-114.44995	907.05137	-937.89067	-192.21229	974.54223	-521.21336	-187.99816	957.40774	-733.87449	-181.38967	973.29536	-520.86860	-184.49415	968.85640	-697.64280	
197	1.96000000	-206.82793	553.13774	-451.58638	-184.37054	429.09330	-457.59093	-293.90632	101.16045	-448.23274	-360.56111	66.69590	-490.66546	-159.51338	36.70583	-403.88095	-123.73667	58.59282	-478.27902	-246.52727	543.65545	-805.12231	-214.42972	440.90898	-793.21576	-300.52214	97.82042	-799.22645	-361.65643	66.60790	-751.41859	-156.19977	35.58353	-829.11790	-125.35032	58.47317	-757.76426	-213.32121	534.48401	-581.04920	-266.74619	111.71506	-543.00129	-234.64779	534.21297	-674.52490	-274.97837	113.28814	-705.98221	-192.38247	314.00482	-475.05100	-244.77132	424.88222	-408.81519	-244.09122	307.38712	-407.46739	-294.10868	443.64668	-833.79662	-276.27082	324.48833	-850.20685	-89.48164	781.74517	-475.85191	-102.31939	669.87680	-487.67122	-135.78382	646.05347	-432.92775	-173.21152	781.17162	-401.52167	-184.95373	663.90230	-421.32189	-132.19880	793.49295	-818.06211	-143.62762	655.15901	-808.51603	-241.78917	796.69881	-850.66402	-252.50693	658.57683	-832.03688	-108.89899	1054.40256	-485.97359	-313.74430	1088.44537	-574.32863	-106.20278	1045.81977	-753.76945	-315.48168	1085.98605	-672.57405	-301.73755	1575.76787	-637.62804	-219.77986	1517.87883	-443.94497	-207.31525	1533.64627	-811.32254	-154.04183	1522.82443	-609.26628	-153.44514	1517.38063	-653.00043	-192.18270	1348.01486	-374.31611	-257.69296	1123.98358	-407.38963	-231.65832	1147.81343	-333.54646	-118.09637	1014.98105	-326.18756	-71.95924	905.32686	-315.91102	-103.10198	884.95976	-297.14500	-185.20120	1356.77772	-890.40444	-266.83360	1146.97342	-858.32090	-224.36778	1160.46310	-924.45805	-120.44869	1031.93191	-893.80832	-79.40016	922.05171	-911.83100	-114.50195	907.04262	-937.90571	-192.15662	974.55506	-521.20652	-187.96188	957.41550	-733.86760	-181.32673	973.29889	-520.87672	-184.45253	968.87410	-697.63865	
198	1.97000000	-206.87034	553.10147	-451.63991	-184.32094	429.12494	-457.54635	-293.88953	101.20151	-448.24198	-360.72294	66.86697	-490.73302	-159.51170	36.72711	-403.88716	-123.75632	58.61348	-478.30116	-246.49933	543.75140	-805.25265	-214.39859	440.93089	-793.19450	-300.52209	97.85446	-799.20062	-361.69345	66.63351	-751.39297	-156.19671	35.59250	-829.06203	-125.32833	58.50590	-757.75631	-213.23827	534.54683	-581.11839	-266.73549	111.76517	-542.98675	-234.65104	534.22798	-674.51798	-274.97353	113.30500	-705.97796	-192.35682	314.03149	-475.00536	-244.75432	425.03237	-408.81342	-244.06256	307.38688	-407.46204	-294.10575	443.68455	-833.78243	-276.25631	324.48140	-850.17164	-89.47511	781.77146	-475.82543	-102.26122	669.89616	-487.66491	-135.72107	646.08638	-432.97036	-173.15002	781.23829	-401.46548	-184.94869	663.87193	-421.34587	-131.91766	793.66850	-817.88941	-143.59913	655.16717	-808.49837	-241.78142	796.73413	-850.62991	-252.48021	658.58553	-831.92443	-108.85241	1054.41309	-485.97030	-313.61174	1088.43441	-574.26346	-106.16942	1045.85826	-753.75130	-315.45319	1085.99739	-672.57601	-301.69068	1575.87754	-637.62520	-219.73796	1517.84169	-443.93342	-207.24883	1533.68552	-811.32028	-153.97338	1522.81066	-609.21040	-153.38807	1517.38179	-652.91719	-192.17657	1347.97515	-374.28963	-257.72178	1123.94731	-407.39900	-231.66973	1147.80354	-333.59147	-118.13635	1014.97219	-326.15403	-72.01913	905.28394	-315.92374	-103.19409	884.91499	-297.18936	-185.14940	1356.81326	-890.33759	-266.82416	1146.97401	-858.27095	-224.35674	1160.49588	-924.42357	-120.48166	1031.91611	-893.83019	-79.45339	922.04646	-911.83104	-114.55714	907.07916	-937.81904	-192.07650	974.55786	-521.19808	-187.90648	957.44210	-733.86155	-181.16933	973.29950	-520.81313	-184.47989	968.91814	-697.56230	
199	1.98000000	-206.89352	553.10798	-451.64956	-184.27241	429.16256	-457.51676	-293.87118	101.22016	-448.25240	-360.82019	66.98707	-490.76780	-159.50374	36.75195	-403.89688	-123.76572	58.63426	-478.31041	-246.48023	543.85962	-805.34677	-214.37904	440.95598	-793.15463	-300.52597	97.91428	-799.16917	-361.68814	66.67902	-751.37647	-156.19158	35.61058	-828.98015	-125.31503	58.54666	-757.71319	-213.23792	534.54131	-581.11944	-266.71946	111.82558	-542.96748	-234.65507	534.22874	-674.51339	-274.99491	113.31047	-706.00467	-192.33757	314.07289	-474.96136	-244.74130	425.00404	-408.71285	-244.01968	307.40890	-407.45115	-294.08754	443.73763	-833.77306	-276.25030	324.51231	-850.13705	-89.49001	781.78058	-475.75082	-102.24608	669.92818	-487.63750	-135.68839	646.09186	-433.01747	-173.11355	781.29957	-401.42818	-184.94146	663.84985	-421.38133	-131.74377	793.77220	-817.78538	-143.55745	655.20261	-808.48000	-241.76866	796.78083	-850.60089	-252.44969	658.60326	-831.80438	-108.86384	1054.32775	-485.95618	-313.55369	1088.45082	-574.22748	-106.13370	1045.90942	-753.72638	-315.42927	1086.01407	-672.57173	-301.63259	1575.87101	-637.55876	-219.69779	1517.77428	-443.94395	-207.18313	1533.70674	-811.28214	-153.89752	1522.80595	-609.17304	-153.33079	1517.38896	-652.84807	-192.17173	1347.90677	-374.30549	-257.77641	1123.92765	-407.43063	-231.66216	1147.75736	-333.65736	-118.19922	1014.93224	-326.13781	-72.12624	905.20882	-315.92140	-103.30096	884.85400	-297.25217	-185.10316	1356.85747	-890.29641	-266.80600	1146.96120	-858.20202	-224.35057	1160.55557	-924.41836	-120.49892	1031.92072	-893.82213	-79.50952	922.05319	-911.84476	-114.60564	907.10099	-937.75896	-192.07593	974.50883	-521.21889	-187.88779	957.48860	-733.88979	-181.16273	973.32768	-520.77459	-184.53340	968.94852	-697.51286	
